<?xml version="1.0" encoding="utf-8"?>
<!-- Generator: Adobe Illustrator 27.1.1, SVG Export Plug-In . SVG Version: 6.00 Build 0)  -->
<svg version="1.1" xmlns="http://www.w3.org/2000/svg" xmlns:xlink="http://www.w3.org/1999/xlink" x="0px" y="0px"
	 viewBox="0 0 500 500" style="enable-background:new 0 0 500 500;" xml:space="preserve">
<style type="text/css">
	.st0{fill:#8E6008;}
	.st1{fill:#6A912D;}
	.st2{fill:#4A671E;}
	.st3{fill:#FFFFFF;}
</style>
<g id="Calque_1">
</g>
<g id="Calque_2">
	<polygon class="st0" points="265,343.3 265,359.5 237.9,359.5 237.9,343 	"/>
	<polygon class="st1" points="267.9,163.1 254.8,140.5 244.8,158.1 	"/>
	<polygon class="st2" points="241.3,163.1 271.2,169.4 280,185.2 223.3,194.5 	"/>
	<polygon class="st2" points="218.6,201.2 283,190.2 312.9,243.6 204.2,225.9 	"/>
	<polygon class="st1" points="201.5,231.1 316.3,250.2 326.9,269.6 168,287.9 	"/>
	<polygon class="st2" points="164.9,293.4 329.8,274.2 358.9,325.1 161.2,300.8 	"/>
	<polygon class="st1" points="362.9,330.8 157.8,305.1 136,341.9 370,344.5 	"/>
</g>
<g id="Calque_3">
	<g>
		<path class="st3" d="M108.4,228.6l8.2,0.4c-0.1,0.2-3.6,14.9-10.7,44.2c-7,29.3-11.8,47.2-14.4,53.7c-0.9,0.2-1.8,0.3-2.7,0.3
			c-2.6,0-5.4-0.3-8.6-1c-2.5-7.3-6.2-22.1-11.2-44.3c-5.7,23.2-9.7,38.2-12.2,45c-0.9,0.2-1.8,0.3-2.7,0.3c-2.6,0-5.4-0.3-8.6-1
			c-1.4-4.1-2.9-9.7-4.7-16.8s-3.6-15-5.5-23.7c-1.9-8.7-3.6-16.3-5-23c-1.4-6.7-2.9-13.9-4.4-21.5c-1.6-7.7-2.4-11.8-2.6-12.6H31
			c3.6,16.8,10.2,43.7,19.7,80.7c1.4-4.9,3.7-13.5,7-25.7c3.3-12.2,5.5-20.3,6.6-24.2c-1.3-5.8-3.4-16.1-6.3-30.8h7.8
			c3.6,16.8,10.2,43.7,19.7,80.7C99.4,258,107.1,231.1,108.4,228.6z"/>
		<path class="st3" d="M127.1,232.3c2.5,0,4.5,1.1,6.2,3.2c1.6,2.1,2.5,4.6,2.5,7.3c0,2-0.5,3.6-1.4,4.9s-2.3,1.8-3.9,1.8
			c-2.6,0-4.6-1-6-3.1c-1.5-2.1-2.2-4.6-2.2-7.4c0-2,0.4-3.6,1.3-4.9C124.3,232.9,125.5,232.3,127.1,232.3z M125.2,256.7l6.3,1.4
			c0.7,7.5,1.4,19.2,1.9,35.2s0.9,25.9,1.1,29.7c-0.8,2.8-2.4,4.2-4.8,4.2c-1.6,0-3.2-0.7-4.7-2c-1.5-1.3-2.4-2.9-2.8-4.9
			c0.2-3.7,0.5-13.5,1.1-29.2S124.4,264,125.2,256.7z"/>
		<path class="st3" d="M149.9,233.2l6.3,1.4l3,88.5c-0.8,2.8-2.4,4.2-4.8,4.2c-1.6,0-3.2-0.7-4.7-2c-1.5-1.3-2.4-2.9-2.8-4.9
			L149.9,233.2z"/>
		<path class="st3" d="M219.6,330.6l-7.5-1.5c0-1.8,0-3.2-0.1-4.1c-4.8,3.1-9.9,4.6-15.3,4.6c-8.3,0-14.7-3.6-19.3-10.7
			c-4.6-7.1-6.9-15.2-6.9-24.2c0-4.6,0.3-9,1-13.1s1.9-8.3,3.6-12.6c1.7-4.3,4.3-7.8,7.9-10.3c3.6-2.6,8-3.8,13.1-3.8
			c5,0,9.7,1.2,14.1,3.7c0.7-9.7,1.1-19.4,1.1-29.3c0-4.5,0-7.7-0.1-9.8c4.4,0.8,7.8,1.9,10.4,3.1L219.6,330.6z M210.9,315.8
			l-0.4-44c-1.1-2.3-2.8-4.1-5.1-5.4c-2.3-1.3-4.8-2-7.5-2c-3.6,0-6.6,1.1-9.1,3.4c-2.5,2.3-4.3,5.3-5.3,9.1
			c-1,3.8-1.8,7.3-2.2,10.6s-0.6,6.7-0.6,10.4c0,15.5,5.2,23.2,15.6,23.2c3.5,0,6.6-0.5,9.5-1.4S210.4,317.4,210.9,315.8z"/>
		<path class="st3" d="M235.5,233.2l6.3,1.4l3,88.5c-0.8,2.8-2.4,4.2-4.8,4.2c-1.6,0-3.2-0.7-4.7-2c-1.5-1.3-2.4-2.9-2.8-4.9
			L235.5,233.2z"/>
		<path class="st3" d="M260.9,268l-2.7-7c2.4-2.4,5.4-4.3,9-5.7c3.6-1.4,7.2-2.1,10.8-2.1c15.4,0,23.1,13.3,23.1,39.9
			c0,3.6-0.2,9-0.6,16.1s-0.6,12.4-0.6,16c-0.7,2.8-2.1,4.2-4.2,4.2c-1.6,0-3.1-0.8-4.5-2.5s-2.1-3.5-2.1-5.5c0-0.6,0-1.1,0.1-1.4
			c-5.7,5.5-11.7,8.2-18,8.2c-4.8,0-9-1.8-12.6-5.3c-3.6-3.5-5.4-7.8-5.4-12.8c0-8.5,3.3-16.1,9.9-23c6.6-6.8,14.1-10.3,22.5-10.3
			c0.4,0,0.7,0,1.1,0.1c0.4,0,0.8,0.1,1.3,0.2c0.5,0.1,0.9,0.1,1.2,0.1c-0.7-10.6-5-15.9-12.7-15.9
			C271.8,261.7,266.7,263.8,260.9,268z M289.5,310.7c0.2-6.4,0.3-11.2,0.3-14.5c0-2.7-0.1-6.6-0.3-11.5h-1.1
			c-6.5,0.1-12.4,2.5-17.7,7.2c-5.3,4.7-8,10.5-8,17.2c0,2.9,0.9,5.2,2.7,7c1.8,1.7,3.9,2.6,6.5,2.6
			C275.9,318.8,281.8,316.1,289.5,310.7z"/>
		<path class="st3" d="M321.5,272.2l0.5,54.3c-1.4,0.7-3,1.1-4.9,1.1c-1.5,0-3.1-0.2-4.9-0.7c0.3-5.7,0.5-17,0.5-33.9
			c0.1-16.9,0.5-29.3,1.1-37.5l6.2,1.4l0.4,7.7c4.8-5.1,10.4-7.7,16.7-7.7c3.2,0,5.7,0.2,7.7,0.7c1.9,0.5,3.8,1.6,5.5,3.3
			s3.1,4.1,4,7c0.9,2.9,1.7,7.1,2.5,12.5c0.7,5.4,1.3,11.8,1.6,19c0.3,7.2,0.5,16.4,0.6,27.4c-0.5,0.2-1.6,0.3-3.1,0.3
			c-3.3,0-5.8-0.4-7.7-1.2c-0.4-1.5-0.5-3.9-0.5-7.3c0-1.7,0.1-5,0.2-9.8c0.1-4.8,0.2-8.5,0.2-11.2c0-4.4-0.2-8.2-0.5-11.5
			c-0.3-3.3-0.9-6.5-1.8-9.7c-0.9-3.2-2.2-5.7-4-7.4c-1.8-1.7-4-2.6-6.6-2.6c-3,0-5.4,0.2-7,0.7c-1.7,0.5-2.9,1-3.6,1.6
			C323.9,269.4,322.9,270.6,321.5,272.2z"/>
		<path class="st3" d="M419.3,330.6l-7.5-1.5c0-1.8,0-3.2-0.1-4.1c-4.8,3.1-9.9,4.6-15.3,4.6c-8.3,0-14.7-3.6-19.3-10.7
			c-4.6-7.1-6.9-15.2-6.9-24.2c0-4.6,0.3-9,1-13.1s1.9-8.3,3.6-12.6c1.7-4.3,4.3-7.8,7.9-10.3c3.6-2.6,8-3.8,13.1-3.8
			c5,0,9.7,1.2,14.1,3.7c0.7-9.7,1.1-19.4,1.1-29.3c0-4.5,0-7.7-0.1-9.8c4.4,0.8,7.8,1.9,10.4,3.1L419.3,330.6z M410.5,315.8
			l-0.4-44c-1.1-2.3-2.8-4.1-5.1-5.4c-2.3-1.3-4.8-2-7.5-2c-3.6,0-6.6,1.1-9.1,3.4c-2.5,2.3-4.3,5.3-5.3,9.1
			c-1,3.8-1.8,7.3-2.2,10.6s-0.6,6.7-0.6,10.4c0,15.5,5.2,23.2,15.6,23.2c3.5,0,6.6-0.5,9.5-1.4S410,317.4,410.5,315.8z"/>
		<path class="st3" d="M474.2,261.1l-1.4,5.5c-8.8-3.6-15.7-5.5-20.6-5.5c-4.4,0-7.5,0.7-9.2,2c-1.8,1.3-2.7,4.1-2.7,8.4
			c0,3.5,1.3,6.3,3.8,8.6c2.5,2.3,5.5,4.1,9.1,5.4c3.6,1.3,7.1,2.7,10.7,4.2c3.6,1.5,6.7,3.7,9.2,6.6c2.5,2.9,3.8,6.5,3.8,10.8
			c0,5.8-2.1,10.9-6.4,15.3c-4.3,4.4-9.8,6.6-16.7,6.7c-5,0-9.7-1.1-14.1-3.2c-4.4-2.1-7.8-4.8-10.4-8l4-4.1
			c1.1,0.5,2.7,1.2,4.9,2.2c2.1,1,3.7,1.7,4.6,2c0.9,0.3,2.3,0.7,4,1c1.8,0.4,3.7,0.5,5.7,0.5c4.3,0,7.8-1,10.5-2.9s4.1-4.6,4.1-8
			c0-2.3-0.6-4.2-1.9-5.8c-1.3-1.6-3-2.9-5.1-3.9c-2.1-1-4.4-2-6.9-2.9c-2.5-0.9-5-1.9-7.5-3.1c-2.5-1.1-4.8-2.5-6.9-4.1
			c-2.1-1.6-3.8-3.8-5.1-6.5c-1.3-2.7-1.9-6-1.9-9.7c0-5.5,1.5-10,4.4-13.7c3-3.7,7.1-5.5,12.5-5.5c2.1,0,4.5,0.3,7.1,1
			c2.6,0.6,4.7,1.2,6.3,1.8c1.5,0.5,3.8,1.4,6.9,2.7C472,260.2,473.8,260.9,474.2,261.1z"/>
	</g>
</g>
</svg>
